<?xml version="1.0" standalone="no"?>
<!DOCTYPE svg PUBLIC "-//W3C//DTD SVG 20010904//EN"
 "http://www.w3.org/TR/2001/REC-SVG-20010904/DTD/svg10.dtd">
<svg version="1.0" xmlns="http://www.w3.org/2000/svg"
 width="158.000000pt" height="158.000000pt" viewBox="0 0 158.000000 158.000000"
 preserveAspectRatio="xMidYMid meet">
<metadata>
Created by potrace 1.11, written by Peter Selinger 2001-2013
</metadata>
<g transform="translate(0.000000,158.000000) scale(0.100000,-0.100000)"
fill="#000000" stroke="none">
<path d="M1473 1493 c-33 -43 -104 -166 -151 -263 -67 -137 -225 -390 -244
-390 -3 0 -7 46 -7 103 -1 56 -3 149 -6 207 -10 182 -16 198 -68 204 -15 1
-30 6 -34 9 -30 31 -47 -7 -143 -317 -38 -120 -145 -331 -248 -486 -125 -190
-350 -401 -522 -491 l-45 -24 82 -3 c58 -2 91 2 111 12 91 47 317 265 407 392
28 38 53 71 57 72 5 2 8 8 8 14 0 5 9 22 19 37 39 55 180 340 196 397 25 89
78 234 86 234 13 0 17 -490 5 -527 -6 -17 -2 -25 18 -39 32 -20 71 -8 85 28 5
13 41 70 81 128 124 181 156 232 216 348 32 61 62 112 67 112 4 0 3 -8 -2 -18
-9 -17 -169 -434 -175 -457 -2 -5 -8 -23 -14 -38 -7 -16 -12 -31 -12 -33 0 -3
-20 -44 -44 -92 -44 -89 -71 -134 -181 -302 -35 -52 -78 -123 -96 -158 l-34
-63 24 -19 c24 -21 61 -27 61 -11 0 5 6 16 13 23 6 7 22 33 34 58 13 25 50 85
83 135 138 208 209 347 280 545 27 79 98 267 111 295 23 53 45 134 79 293 11
51 3 71 -39 101 l-29 21 -29 -37z"/>
</g>
</svg>
